<svg width="109" height="109" viewBox="0 0 109 109" fill="none" xmlns="http://www.w3.org/2000/svg">
<path fill-rule="evenodd" clip-rule="evenodd" d="M53.9859 30.8491L53.9859 4.49485e-08L55.0142 0L55.0142 30.8491L53.9859 30.8491Z" fill="url(#paint0_linear_1_2463)"/>
<path d="M50.3945 35.2895C50.3945 33.0804 52.1854 31.2895 54.3945 31.2895H54.681C56.8902 31.2895 58.681 33.0804 58.681 35.2895V42.8755H50.3945V35.2895Z" fill="url(#paint1_linear_1_2463)"/>
<circle cx="54.5378" cy="53.071" r="13.2805" fill="#F2C94C"/>
<circle cx="54.5378" cy="50.4245" r="34" fill="url(#paint2_radial_1_2463)"/>
<ellipse cx="54.5379" cy="47.7857" rx="10.2444" ry="8.99518" fill="url(#paint3_radial_1_2463)"/>
<path d="M64.982 56.9713C64.982 60.2717 59.8212 64.8437 54.7078 64.8437C49.5944 64.8437 44.0935 60.2717 44.0935 56.9712C44.0935 53.6708 49.5944 57.9729 54.7078 57.9729C59.8212 57.9729 64.982 53.6708 64.982 56.9713Z" fill="url(#paint4_radial_1_2463)"/>
<defs>
<linearGradient id="paint0_linear_1_2463" x1="54.6259" y1="30.8491" x2="66.6066" y2="5.70442" gradientUnits="userSpaceOnUse">
<stop offset="0.114583" stop-color="#242424"/>
<stop offset="0.492654" stop-color="#6E6962" stop-opacity="0.85"/>
<stop offset="0.869792" stop-color="#212121"/>
</linearGradient>
<linearGradient id="paint1_linear_1_2463" x1="58.681" y1="35.6639" x2="50.3945" y2="35.5697" gradientUnits="userSpaceOnUse">
<stop offset="0.114583" stop-color="#242424"/>
<stop offset="0.492654" stop-color="#6E6962" stop-opacity="0.85"/>
<stop offset="0.869792" stop-color="#212121"/>
</linearGradient>
<radialGradient id="paint2_radial_1_2463" cx="0" cy="0" r="1" gradientUnits="userSpaceOnUse" gradientTransform="translate(54.5378 50.4245) rotate(90) scale(32.6052 34)">
<stop stop-color="#F2C94C" stop-opacity="0.7"/>
<stop offset="1" stop-color="#F2C94C" stop-opacity="0"/>
</radialGradient>
<radialGradient id="paint3_radial_1_2463" cx="0" cy="0" r="1" gradientUnits="userSpaceOnUse" gradientTransform="translate(54.5379 47.7857) rotate(43.0087) scale(9.06143 10.1627)">
<stop offset="0.328125" stop-color="#FEFBF1" stop-opacity="0.99"/>
<stop offset="1" stop-color="#FEFBF1" stop-opacity="0"/>
</radialGradient>
<radialGradient id="paint4_radial_1_2463" cx="0" cy="0" r="1" gradientUnits="userSpaceOnUse" gradientTransform="translate(54.7211 61.2831) rotate(90) scale(6.56814 16.3409)">
<stop stop-color="#A6800C" stop-opacity="0.7"/>
<stop offset="1" stop-color="#D5A510" stop-opacity="0"/>
</radialGradient>
</defs>
</svg>
