<svg width="109" height="109" viewBox="0 0 109 109" fill="none" xmlns="http://www.w3.org/2000/svg">
<path fill-rule="evenodd" clip-rule="evenodd" d="M53.9859 30.8491L53.9859 4.49485e-08L55.0142 0L55.0142 30.8491L53.9859 30.8491Z" fill="url(#paint0_linear_1_725)"/>
<path d="M50.2991 35.2895C50.2991 33.0804 52.0899 31.2895 54.2991 31.2895H54.5856C56.7947 31.2895 58.5856 33.0804 58.5856 35.2895V42.8755H50.2991V35.2895Z" fill="url(#paint1_linear_1_725)"/>
<circle cx="54.4423" cy="53.071" r="13.2805" fill="#F2764C"/>
<circle cx="54.5377" cy="50.4245" r="34" fill="url(#paint2_radial_1_725)"/>
<ellipse cx="53.4423" cy="47.7857" rx="10.2444" ry="8.99518" fill="url(#paint3_radial_1_725)"/>
<path d="M63.8866 56.9713C63.8866 60.2717 58.7257 64.8437 53.6123 64.8437C48.4989 64.8437 42.998 60.2717 42.998 56.9712C42.998 53.6708 48.4989 57.9729 53.6123 57.9729C58.7257 57.9729 63.8866 53.6708 63.8866 56.9713Z" fill="url(#paint4_radial_1_725)"/>
<defs>
<linearGradient id="paint0_linear_1_725" x1="54.6259" y1="30.8491" x2="66.6066" y2="5.70442" gradientUnits="userSpaceOnUse">
<stop offset="0.114583" stop-color="#242424"/>
<stop offset="0.492654" stop-color="#6E6962" stop-opacity="0.85"/>
<stop offset="0.869792" stop-color="#212121"/>
</linearGradient>
<linearGradient id="paint1_linear_1_725" x1="58.5856" y1="35.6639" x2="50.2991" y2="35.5697" gradientUnits="userSpaceOnUse">
<stop offset="0.114583" stop-color="#242424"/>
<stop offset="0.492654" stop-color="#6E6962" stop-opacity="0.85"/>
<stop offset="0.869792" stop-color="#212121"/>
</linearGradient>
<radialGradient id="paint2_radial_1_725" cx="0" cy="0" r="1" gradientUnits="userSpaceOnUse" gradientTransform="translate(54.5377 50.4245) rotate(90) scale(32.6052 34)">
<stop stop-color="#F2764C" stop-opacity="0.7"/>
<stop offset="1" stop-color="#F2564C" stop-opacity="0"/>
</radialGradient>
<radialGradient id="paint3_radial_1_725" cx="0" cy="0" r="1" gradientUnits="userSpaceOnUse" gradientTransform="translate(53.4423 47.7857) rotate(43.0087) scale(9.06143 10.1627)">
<stop offset="0.328125" stop-color="#FEFBF1" stop-opacity="0.99"/>
<stop offset="1" stop-color="#FEFBF1" stop-opacity="0"/>
</radialGradient>
<radialGradient id="paint4_radial_1_725" cx="0" cy="0" r="1" gradientUnits="userSpaceOnUse" gradientTransform="translate(53.6257 61.2831) rotate(90) scale(6.56814 16.3409)">
<stop stop-color="#A6330C" stop-opacity="0.7"/>
<stop offset="1" stop-color="#D54110" stop-opacity="0"/>
</radialGradient>
</defs>
</svg>
